Coordinates
version=1
nRows=17
nColumns=24
inDegrees=yes

Units are S.I. units (second, meters, Newtons, ...)
Angles are in degrees.

endheader
time	pelvis_tilt	pelvis_list	pelvis_rotation	pelvis_tx	pelvis_ty	pelvis_tz	hip_flexion_r	hip_adduction_r	hip_rotation_r	knee_angle_r	ankle_angle_r	subtalar_angle_r	mtp_angle_r	hip_flexion_l	hip_adduction_l	hip_rotation_l	knee_angle_l	ankle_angle_l	subtalar_angle_l	mtp_angle_l	lumbar_extension	lumbar_bending	lumbar_rotation
      5.20000000	     33.19827020	      7.71509544	      8.30387454	     -0.11534407	      0.64992218	     -0.26555792	    -11.57621412	     -5.13008354	    -18.57389696	     -1.99153096	     11.68308484	      7.50084978	      0.00000000	    -51.93757597	      0.25721881	      3.98171551	    -16.53587706	     20.10543987	     20.28241362	      0.00000000	    -61.69478009	      1.34619544	    -12.10626106
      5.20500000	     33.35865454	      7.56622420	      8.58670373	     -0.10885204	      0.64979979	     -0.26521784	    -11.65669897	     -4.82649952	    -18.01873709	     -3.05205772	     11.13064520	      7.01351002	      0.00000000	    -52.05038809	     -0.28171406	      4.04199830	    -17.67526978	     19.32424459	     20.49879272	      0.00000000	    -61.70361664	      1.66545526	    -12.17080626
      5.21000000	     33.54578175	      7.31351772	      8.73981549	     -0.10236250	      0.64968034	     -0.26481224	    -11.65657774	     -4.44109400	    -17.17190878	     -4.28078071	     10.51960822	      6.32969884	      0.00000000	    -52.15803976	     -0.78962156	      3.93547229	    -18.85203741	     18.46486230	     20.75119204	      0.00000000	    -61.73553103	      1.97471654	    -12.11932807
      5.21500000	     33.70951653	      7.10138344	      9.00211903	     -0.09585031	      0.64966149	     -0.26443719	    -11.66533071	     -4.05881888	    -16.40799064	     -5.53953197	      9.88344298	      5.61666937	      0.00000000	    -52.15029474	     -1.35197027	      3.92344329	    -20.16542283	     17.47161708	     20.97608538	      0.00000000	    -61.74789606	      2.32290204	    -12.11190215
      5.22000000	     33.86370902	      6.82334702	      9.16144558	     -0.08933992	      0.64963900	     -0.26398539	    -11.58854234	     -3.62522798	    -15.44053919	     -6.90833285	      9.24591713	      4.82836575	      0.00000000	    -52.07626334	     -1.87290983	      3.78000162	    -21.55639192	     16.38907101	     21.21942113	      0.00000000	    -61.75134772	      2.63901543	    -12.03176483
      5.22500000	     33.93076471	      6.46376989	      9.11628989	     -0.08284564	      0.64954444	     -0.26340705	    -11.29887253	     -3.17243220	    -14.23801271	     -8.42382361	      8.65970923	      4.11806768	      0.00000000	    -51.85684441	     -2.26523271	      3.39177027	    -23.02656680	     15.19662307	     21.45496492	      0.00000000	    -61.67395605	      2.83735736	    -11.74372440
      5.23000000	     34.09007397	      6.20199253	      9.36189017	     -0.07632006	      0.64963067	     -0.26296549	    -11.24862895	     -2.70028548	    -13.39409975	     -9.83954168	      8.11837469	      3.36394225	      0.00000000	    -51.63790785	     -2.84354798	      3.28885138	    -24.61782543	     13.91340206	     21.61658918	      0.00000000	    -61.67882987	      3.20282354	    -11.73755550
      5.23500000	     34.20389640	      5.86967657	      9.46059631	     -0.06978422	      0.64966709	     -0.26239008	    -11.08335349	     -2.18071747	    -12.41051006	    -11.32001266	      7.64451750	      2.61000732	      0.00000000	    -51.32035060	     -3.34998396	      3.00981190	    -26.27500158	     12.54045125	     21.79118716	      0.00000000	    -61.63952398	      3.48855585	    -11.60511191
      5.24000000	     34.21270267	      5.49345622	      9.39885153	     -0.06324669	      0.64961576	     -0.26171637	    -10.74565379	     -1.66828187	    -11.27152958	    -12.86766694	      7.32590489	      2.00943093	      0.00000000	    -50.83758797	     -3.73777924	      2.57933865	    -28.00706672	     11.10042014	     21.92873325	      0.00000000	    -61.50032531	      3.66240167	    -11.30184793
      5.24500000	     34.34803093	      5.18941318	      9.57778275	     -0.05671168	      0.64972095	     -0.26120378	    -10.67446821	     -1.13673928	    -10.58561184	    -14.29079205	      7.08680696	      1.42496789	      0.00000000	    -50.41384274	     -4.29040771	      2.32933497	    -29.79934217	      9.62091501	     21.89255757	      0.00000000	    -61.47556767	      3.99957306	    -11.24579680
      5.25000000	     34.43717953	      4.86105122	      9.68797686	     -0.05017145	      0.64979372	     -0.26062393	    -10.56767549	     -0.59228449	     -9.90081126	    -15.66576363	      6.98177264	      0.90607977	      0.00000000	    -49.88089802	     -4.80263429	      2.00361765	    -31.66327920	      8.11696893	     21.81211525	      0.00000000	    -61.40340376	      4.28199428	    -11.11947688
      5.25500000	     34.42398414	      4.54269523	      9.70800653	     -0.04367360	      0.64979710	     -0.25994733	    -10.34705273	     -0.09401693	     -9.21325351	    -17.03597446	      7.08703067	      0.49127019	      0.00000000	    -49.17335871	     -5.22286688	      1.63661321	    -33.60107788	      6.62400892	     21.68235445	      0.00000000	    -61.24619131	      4.46566269	    -10.92986565
      5.26000000	     34.63864683	      4.23823217	      9.93845247	     -0.03711049	      0.65001312	     -0.25949139	    -10.55840735	      0.47674887	     -8.93072862	    -18.14042007	      7.29698454	      0.31631230	      0.00000000	    -48.68080294	     -5.83638958	      1.38882891	    -35.50510664	      5.11840308	     21.37889388	      0.00000000	    -61.27244779	      4.84726980	    -10.84956121
      5.26500000	     34.71203785	      3.92990253	     10.10786444	     -0.03075305	      0.65012777	     -0.25901161	    -10.59517799	      1.01601933	     -8.62736316	    -19.22832312	      7.51460511	     -0.13428951	      0.00000000	    -47.92687486	     -6.35203014	      1.15207817	    -37.55712688	      3.82871551	     20.78459371	      0.00000000	    -61.21445628	      5.18418886	    -10.78726283
      5.27000000	     34.68455811	      3.67415329	     10.27230488	     -0.02442543	      0.65022636	     -0.25851878	    -10.58022827	      1.47761581	     -8.36196577	    -20.23710699	      7.95302601	     -0.36879372	      0.00000000	    -47.00226831	     -6.79986119	      1.00918717	    -39.65428339	      2.61397506	     20.18079441	      0.00000000	    -61.05649385	      5.45481318	    -10.73732301
      5.27500000	     34.85376071	      3.37305163	     10.46421572	     -0.01799032	      0.65048498	     -0.25803866	    -10.91006943	      2.04141964	     -8.27751891	    -21.01171506	      8.51569928	     -0.54610771	      0.00000000	    -46.32263795	     -7.36374632	      0.75957990	    -41.62458483	      1.44500290	     19.50208348	      0.00000000	    -61.05068703	      5.77980109	    -10.56909286
      5.28000000	     34.78203522	      3.17857825	     10.71831677	     -0.01194983	      0.65065943	     -0.25768039	    -10.97102683	      2.42933156	     -8.32288292	    -21.79279085	      9.04753727	     -0.63356974	      0.00000000	    -45.20403782	     -7.77684001	      0.80252182	    -43.81602247	      0.58796757	     18.50175664	      0.00000000	    -60.90004330	      6.08554296	    -10.64863028
